<svg width="25" height="24" xmlns="http://www.w3.org/2000/svg"><path d="M24.696 9.088c-.068-.203-.27-.574-.912-.676l-7.196-1.047-3.142-6.351c-.304-.609-.676-.71-.98-.71-.608 0-.946.608-1.013.71L8.31 7.364 1.216 8.379c-.473.068-.844.338-.946.71-.135.405.034.81.44 1.216l5.067 4.899-1.182 6.993c-.034.169-.136.71.202 1.081.27.338.744.405 1.25.169 0 0 .034 0 .034-.034l6.385-3.378 6.385 3.378a1.4 1.4 0 0 0 .676.203c.27 0 .473-.101.642-.27.135-.136.27-.406.203-.913l-1.217-7.23 5.17-5.033c.439-.44.439-.81.37-1.081zM18.04 14.56a.623.623 0 0 0-.17.54l1.217 7.027-6.318-3.31a.58.58 0 0 0-.574 0l-6.318 3.31L7.094 15.1a.623.623 0 0 0-.17-.54L1.792 9.595 8.85 8.58a.698.698 0 0 0 .473-.338l3.142-6.385 3.142 6.385c.101.17.27.304.473.338l7.06 1.014-5.1 4.966z" fill="#4D9078"/></svg>