<?xml version="1.0" encoding="UTF-8"?>
<svg width="25px" height="24px" viewBox="0 0 25 24" version="1.1" xmlns="http://www.w3.org/2000/svg" xmlns:xlink="http://www.w3.org/1999/xlink">
    <!-- Generator: Sketch 50.2 (55047) - http://www.bohemiancoding.com/sketch -->
    <title>noun_89061</title>
    <desc>Created with Sketch.</desc>
    <defs></defs>
    <g id="Page-1" stroke="none" stroke-width="1" fill="none" fill-rule="evenodd">
        <g id="noun_89061" fill="#4D9078" fill-rule="nonzero">
            <path d="M24.6959459,9.08783784 C24.6283784,8.88513514 24.4256757,8.51351351 23.7837838,8.41216216 L16.5878378,7.36486486 L13.4459459,1.01351351 C13.1418919,0.405405405 12.7702703,0.304054054 12.4662162,0.304054054 C11.8581081,0.304054054 11.5202703,0.912162162 11.4527027,1.01351351 L8.31081081,7.36486486 L1.21621622,8.37837838 C0.743243243,8.44594595 0.371621622,8.71621622 0.27027027,9.08783784 C0.135135135,9.49324324 0.304054054,9.89864865 0.709459459,10.3040541 L5.77702703,15.2027027 L4.59459459,22.1959459 C4.56081081,22.3648649 4.45945946,22.9054054 4.7972973,23.277027 C5.06756757,23.6148649 5.54054054,23.6824324 6.0472973,23.4459459 C6.0472973,23.4459459 6.08108108,23.4459459 6.08108108,23.4121622 L12.4662162,20.0337838 L18.8513514,23.4121622 C19.0878378,23.5472973 19.3243243,23.6148649 19.527027,23.6148649 C19.7972973,23.6148649 20,23.5135135 20.1689189,23.3445946 C20.3040541,23.2094595 20.4391892,22.9391892 20.3716216,22.4324324 L19.1554054,15.2027027 L24.3243243,10.1689189 C24.7635135,9.72972973 24.7635135,9.35810811 24.6959459,9.08783784 Z M18.0405405,14.5608108 C17.9054054,14.6959459 17.8378378,14.8986486 17.8716216,15.1013514 L19.0878378,22.1283784 L12.7702703,18.8175676 C12.6013514,18.7162162 12.3648649,18.7162162 12.1959459,18.8175676 L5.87837838,22.1283784 L7.09459459,15.1013514 C7.12837838,14.8986486 7.06081081,14.6959459 6.92567568,14.5608108 L1.79054054,9.59459459 L8.85135135,8.58108108 C9.05405405,8.5472973 9.22297297,8.41216216 9.32432432,8.24324324 L12.4662162,1.85810811 L15.6081081,8.24324324 C15.7094595,8.41216216 15.8783784,8.5472973 16.0810811,8.58108108 L23.1418919,9.59459459 L18.0405405,14.5608108 Z" id="Shape"></path>
        </g>
    </g>
</svg>